# File created by Blade
# Date/Time:  Tue Apr 07 20:53:11 2015
# Frame Rate: 120.000 fps
#------------------------------------------------------
:FULLY-SPECIFIED
:DEGREES
776
root 25.787421 34.993312 3.349623 5.029574 -44.056024 -263.913241
Spine -15.322511 -30.626772 6.564971
Head -37.171444 -19.995930 -2.033787
LeftShoulder -3.209101 21.558259 33.805872
LeftArm 95.445770 -27.222881 -75.412551
LeftForeArm -7.413769 -0.000000 20.136029
LeftHand 12.605351 -0.000000 -2.486794
LeftHandThumb1 -26.253704 0.000000 33.147579
RightShoulder -3.622022 12.933972 -38.949894
RightArm 17.154627 20.734643 37.021523
RightForeArm -4.912809 -0.000000 23.764646
RightHand 16.814444 0.000000 -14.202004
RightHandThumb1 -24.326973 -0.000000 -32.862282
LeftUpLeg 3.337569 7.808683 14.308360
LeftLeg 24.546277 -0.000000 -0.000000
LeftFoot 37.230636 26.224282 -11.903005
LeftToeBase 17.248095 -0.000000 -0.000000
RightUpLeg -91.430532 -40.891766 -7.348812
RightLeg -0.112021 -0.000000 0.000000
RightFoot 6.288022 -28.804106 -8.804378
RightToeBase -9.390915 -0.000000 0.000000
777
root 26.030408 34.979999 3.373838 4.184074 -43.792239 -263.865632
Spine -15.814517 -30.829322 5.648566
Head -36.265292 -20.194656 -2.826085
LeftShoulder -3.275817 22.394455 32.771604
LeftArm 94.567942 -27.257241 -75.677657
LeftForeArm -7.128109 -0.000000 20.489774
LeftHand 12.397440 -0.000000 -2.707312
LeftHandThumb1 -26.253704 0.000000 33.147579
RightShoulder -4.051493 11.892023 -38.503719
RightArm 16.430945 20.996382 36.650533
RightForeArm -4.294733 -0.000000 23.405720
RightHand 16.754007 -0.000000 -13.613932
RightHandThumb1 -24.326973 -0.000000 -32.862282
LeftUpLeg 4.531546 7.433726 15.506711
LeftLeg 25.397355 -0.000000 -0.000000
LeftFoot 37.403338 26.085526 -11.518347
LeftToeBase 17.741749 -0.000000 -0.000000
RightUpLeg -91.398947 -40.969687 -7.431622
RightLeg 0.281574 -0.000000 -0.000000
RightFoot 6.101430 -29.244998 -8.843092
RightToeBase -9.039408 -0.000000 0.000000
778
root 26.265566 34.953355 3.399264 3.369054 -43.523428 -263.822575
Spine -16.378633 -31.026330 4.744196
Head -35.237306 -20.417373 -3.611919
LeftShoulder -3.424692 23.361887 31.580511
LeftArm 93.862040 -27.501729 -75.811440
LeftForeArm -6.571402 -0.000000 20.734541
LeftHand 11.859818 -0.000000 -3.314428
LeftHandThumb1 -26.253704 0.000000 33.147579
RightShoulder -4.507886 11.007614 -38.085834
RightArm 15.697172 21.113503 36.237086
RightForeArm -3.510711 -0.000000 23.087863
RightHand 16.128081 -0.000000 -13.227245
RightHandThumb1 -24.326973 -0.000000 -32.862282
LeftUpLeg 5.708659 7.034147 16.691941
LeftLeg 26.065155 -0.000000 -0.000000
LeftFoot 37.598879 26.060229 -11.196111
LeftToeBase 17.819597 -0.000000 -0.000000
RightUpLeg -91.378115 -41.066063 -7.483937
RightLeg 0.656419 -0.000000 -0.000000
RightFoot 5.789595 -29.615171 -8.859730
RightToeBase -8.682429 -0.000000 0.000000
779
root 26.491472 34.913765 3.425573 2.500998 -43.313261 -263.806373
Spine -16.817303 -31.219035 3.747441
Head -34.171057 -20.524212 -4.234137
LeftShoulder -3.796926 24.355162 30.392815
LeftArm 93.491966 -27.672690 -76.220783
LeftForeArm -5.364187 -0.000000 20.557490
LeftHand 11.674233 0.000000 -4.370781
LeftHandThumb1 -26.253704 0.000000 33.147579
RightShoulder -5.006990 10.239905 -37.577833
RightArm 15.075196 21.208605 35.777272
RightForeArm -2.617108 -0.000000 22.746674
RightHand 15.794894 -0.000000 -12.435365
RightHandThumb1 -24.326973 -0.000000 -32.862282
LeftUpLeg 6.958234 6.570476 17.871055
LeftLeg 26.616765 -0.000000 -0.000000
LeftFoot 37.543091 26.030978 -11.018000
LeftToeBase 18.132574 -0.000000 -0.000000
RightUpLeg -91.097100 -41.110347 -7.719367
RightLeg 0.925345 -0.000000 -0.000000
RightFoot 5.360941 -29.943288 -8.817894
RightToeBase -8.186648 -0.000000 0.000000
780
root 26.709625 34.860728 3.455478 1.698427 -43.089879 -263.837398
Spine -17.333537 -31.421495 2.826806
Head -32.985785 -20.601816 -4.940239
LeftShoulder -4.213006 25.114932 29.251660
LeftArm 92.528515 -27.961088 -76.121336
LeftForeArm -4.123631 -0.000000 20.598828
LeftHand 11.400307 0.000000 -4.905270
LeftHandThumb1 -26.253704 0.000000 33.147579
RightShoulder -5.588340 9.644749 -37.231230
RightArm 14.625207 21.582108 35.613624
RightForeArm -2.623511 -0.000000 22.227303
RightHand 15.588190 -0.000000 -11.816365
RightHandThumb1 -24.326973 -0.000000 -32.862282
LeftUpLeg 8.122376 6.038164 19.026585
LeftLeg 27.096498 -0.000000 -0.000000
LeftFoot 37.405830 25.845920 -10.677241
LeftToeBase 18.129159 -0.000000 -0.000000
RightUpLeg -90.626819 -41.215220 -8.107712
RightLeg 1.092610 -0.000000 -0.000000
RightFoot 4.724402 -30.191065 -8.685346
RightToeBase -7.446386 -0.000000 0.000000
781
root 26.924634 34.794577 3.484039 0.929955 -42.892700 -263.889446
Spine -17.948970 -31.628810 1.941159
Head -31.537574 -20.599419 -5.674598
LeftShoulder -4.584585 25.791167 28.273603
LeftArm 91.207682 -28.374730 -75.861571
LeftForeArm -2.896529 -0.000000 20.705221
LeftHand 11.122470 -0.000000 -4.766956
LeftHandThumb1 -26.253704 0.000000 33.147579
RightShoulder -6.044399 9.273670 -37.044957
RightArm 14.012866 22.057417 35.584153
RightForeArm -3.075534 -0.000000 21.789491
RightHand 15.369811 -0.000000 -11.308212
RightHandThumb1 -24.326973 -0.000000 -32.862282
LeftUpLeg 9.197641 5.448314 20.125369
LeftLeg 27.539151 -0.000000 -0.000000
LeftFoot 37.185980 25.662616 -10.320743
LeftToeBase 18.252187 -0.000000 -0.000000
RightUpLeg -90.047758 -41.337271 -8.578704
RightLeg 1.227544 -0.000000 -0.000000
RightFoot 3.903100 -30.286117 -8.585204
RightToeBase -6.791125 -0.000000 0.000000
782
root 27.128278 34.724764 3.509662 0.063865 -42.686969 -263.853280
Spine -18.441983 -31.844161 0.896633
Head -30.155703 -20.540211 -6.262023
LeftShoulder -5.078669 26.451751 27.362544
LeftArm 89.797200 -28.800538 -75.198954
LeftForeArm -0.949828 -0.000000 20.528752
LeftHand 11.370246 -0.000000 -3.826689
LeftHandThumb1 -26.253704 0.000000 33.147579
RightShoulder -6.545310 9.146202 -36.906497
RightArm 13.224508 22.286407 35.488153
RightForeArm -3.535000 -0.000000 21.523127
RightHand 15.138641 0.000000 -11.303144
RightHandThumb1 -24.326973 -0.000000 -32.862282
LeftUpLeg 10.162908 4.733805 21.042536
LeftLeg 28.066781 -0.000000 -0.000000
LeftFoot 36.691986 25.362414 -9.964623
LeftToeBase 18.543308 -0.000000 -0.000000
RightUpLeg -88.784385 -41.467687 -9.806715
RightLeg 1.062865 -0.000000 -0.000000
RightFoot 3.139635 -30.669312 -8.418579
RightToeBase -6.201668 -0.000000 0.000000
783
root 27.319337 34.656499 3.529345 -0.777112 -42.486062 -263.732817
Spine -18.974038 -32.000071 -0.216636
Head -28.791697 -20.474299 -6.770086
LeftShoulder -5.655894 27.010272 26.500365
LeftArm 88.405461 -29.311518 -74.589163
LeftForeArm 0.227886 -0.000000 20.455633
LeftHand 11.148290 -0.000000 -4.065892
LeftHandThumb1 -26.253704 0.000000 33.147579
RightShoulder -7.092108 9.000860 -36.843278
RightArm 12.432768 22.622458 35.427473
RightForeArm -4.066847 -0.000000 21.337326
RightHand 14.832462 -0.000000 -11.527539
RightHandThumb1 -24.326973 -0.000000 -32.862282
LeftUpLeg 10.863746 4.042432 21.751653
LeftLeg 28.783308 -0.000000 -0.000000
LeftFoot 36.125040 25.187631 -9.426934
LeftToeBase 18.568553 -0.000000 -0.000000
RightUpLeg -87.528534 -41.594335 -11.054358
RightLeg 0.820413 -0.000000 -0.000000
RightFoot 2.276782 -31.013499 -8.081163
RightToeBase -5.673330 -0.000000 0.000000
784
root 27.495508 34.601760 3.545423 -1.459317 -42.256991 -263.503054
Spine -19.794668 -32.206051 -1.230462
Head -27.443753 -20.385104 -7.246722
LeftShoulder -6.320063 27.561218 25.657101
LeftArm 86.930211 -29.861708 -73.758368
LeftForeArm 1.651887 -0.000000 20.166461
LeftHand 11.098171 -0.000000 -3.708228
LeftHandThumb1 -26.253704 0.000000 33.147579
RightShoulder -7.563420 8.817789 -36.826255
RightArm 11.654078 23.040472 35.323158
RightForeArm -4.606568 0.000000 21.135927
RightHand 14.854760 -0.000000 -11.739719
RightHandThumb1 -24.326973 -0.000000 -32.862282
LeftUpLeg 11.127945 3.309878 22.189235
LeftLeg 29.696689 -0.000000 -0.000000
LeftFoot 35.624332 25.111929 -8.933034
LeftToeBase 18.660616 -0.000000 -0.000000
RightUpLeg -86.576845 -41.772492 -12.016411
RightLeg 0.393221 -0.000000 -0.000000
RightFoot 1.598692 -31.256135 -7.602141
RightToeBase -5.246454 -0.000000 0.000000
785
root 27.652987 34.561297 3.559355 -1.972178 -41.924523 -263.373957
Spine -20.675046 -32.461351 -2.067612
Head -26.190296 -20.222841 -7.820978
LeftShoulder -6.942231 28.026470 24.864372
LeftArm 85.414788 -30.527114 -73.006494
LeftForeArm 2.490898 -0.000000 19.904549
LeftHand 11.560355 -0.000000 -3.022105
LeftHandThumb1 -26.253704 0.000000 33.147579
RightShoulder -8.072655 8.800429 -36.934857
RightArm 10.819548 23.483959 35.205132
RightForeArm -5.240571 -0.000000 20.957068
RightHand 14.729546 0.000000 -12.208056
RightHandThumb1 -24.326973 -0.000000 -32.862282
LeftUpLeg 11.036899 2.478039 22.520763
LeftLeg 30.821383 -0.000000 -0.000000
LeftFoot 35.314809 25.206381 -8.619860
LeftToeBase 18.878889 -0.000000 -0.000000
RightUpLeg -85.773416 -42.082318 -12.591020
RightLeg -0.240498 -0.000000 0.000000
RightFoot 1.212641 -31.349437 -7.229260
RightToeBase -4.745107 -0.000000 0.000000
786
root 27.800404 34.548610 3.562748 -2.224965 -41.525726 -263.161108
Spine -21.905275 -32.838118 -2.714248
Head -25.024093 -20.034437 -8.328226
LeftShoulder -7.591621 28.559696 24.077566
LeftArm 84.104124 -31.372744 -72.580954
LeftForeArm 3.239185 -0.000000 19.613448
LeftHand 11.719173 -0.000000 -1.862916
LeftHandThumb1 -26.253704 0.000000 33.147579
RightShoulder -8.470068 8.773607 -37.092917
RightArm 9.964549 23.891440 34.989627
RightForeArm -5.406076 -0.000000 20.838082
RightHand 14.655579 -0.000000 -12.366460
RightHandThumb1 -24.326973 -0.000000 -32.862282
LeftUpLeg 10.424430 1.575541 22.589937
LeftLeg 32.055623 -0.000000 -0.000000
LeftFoot 35.356309 25.370524 -8.662481
LeftToeBase 19.199573 -0.000000 -0.000000
RightUpLeg -85.518110 -42.554196 -12.666655
RightLeg -0.998882 -0.000000 0.000000
RightFoot 0.960596 -31.100929 -6.631808
RightToeBase -3.993159 -0.000000 0.000000
787
root 27.915653 34.487926 3.543227 -1.819697 -42.191208 -264.737864
Spine -22.366599 -32.119049 -2.091410
Head -24.577342 -19.941224 -8.908730
LeftShoulder -8.465546 28.923447 22.751487
LeftArm 83.138219 -32.361943 -72.412104
LeftForeArm 3.904623 -0.000000 19.469371
LeftHand 11.838310 -0.000000 -1.193708
LeftHandThumb1 -26.253704 0.000000 33.147579
RightShoulder -9.049598 8.897358 -37.241480
RightArm 9.280664 24.485182 34.692074
RightForeArm -5.626298 -0.000000 20.804928
RightHand 14.701558 -0.000000 -12.891305
RightHandThumb1 -24.326973 -0.000000 -32.862282
LeftUpLeg 10.852719 1.717812 24.216212
LeftLeg 32.891790 -0.000000 -0.000000
LeftFoot 35.995442 25.225886 -8.809928
LeftToeBase 19.239686 -0.000000 -0.000000
RightUpLeg -84.925796 -41.828263 -11.069473
RightLeg -2.118648 -0.000000 0.000000
RightFoot 0.833906 -30.649367 -6.533814
RightToeBase -3.617596 -0.000000 0.000000
788
root 28.040823 34.495352 3.523128 -1.919536 -42.219672 -264.571332
Spine -23.584226 -32.144790 -2.620899
Head -23.682509 -19.757317 -9.144030
LeftShoulder -9.118054 29.428324 22.022121
LeftArm 82.030556 -33.586206 -72.301072
LeftForeArm 3.799238 -0.000000 19.312682
LeftHand 11.801046 -0.000000 -0.594070
LeftHandThumb1 -26.253704 0.000000 33.147579
RightShoulder -9.409159 8.820230 -37.304106
RightArm 8.592347 24.906196 34.300981
RightForeArm -5.567732 -0.000000 20.654918
RightHand 14.440476 -0.000000 -12.904563
RightHandThumb1 -24.326973 -0.000000 -32.862282
LeftUpLeg 10.185516 1.518803 24.194269
LeftLeg 33.643765 -0.000000 -0.000000
LeftFoot 36.897460 25.185256 -9.016938
LeftToeBase 19.030712 -0.000000 -0.000000
RightUpLeg -85.330506 -41.921248 -10.351047
RightLeg -2.798119 -0.000000 0.000000
RightFoot 0.658845 -29.976907 -5.609931
RightToeBase -3.331221 -0.000000 0.000000
